<svg width="282" height="152" viewBox="0 0 282 152" fill="none" xmlns="http://www.w3.org/2000/svg">
<path d="M117.667 90.71V126.062H112.247V96.0811H112.052L103.604 101.599V96.4717L112.394 90.71H117.667ZM137.456 126.55C129.253 126.55 124.468 119.958 124.468 108.386C124.468 96.9111 129.351 90.2217 137.456 90.2217C145.562 90.2217 150.444 96.9111 150.444 108.386C150.444 119.958 145.61 126.55 137.456 126.55ZM137.456 121.911C142.241 121.911 145.073 117.224 145.073 108.386C145.073 99.5967 142.192 94.7627 137.456 94.7627C132.72 94.7627 129.839 99.5967 129.839 108.386C129.839 117.224 132.671 121.911 137.456 121.911Z" fill="#EA5050"/>
<path d="M160.798 113.218L157.158 126.765H155.673L159.314 113.218H160.798ZM169.26 113.749V125.062H167.526V115.468H167.463L164.76 117.233V115.593L167.573 113.749H169.26ZM175.593 125.218C172.968 125.218 171.436 123.108 171.436 119.405C171.436 115.733 172.999 113.593 175.593 113.593C178.186 113.593 179.749 115.733 179.749 119.405C179.749 123.108 178.202 125.218 175.593 125.218ZM175.593 123.733C177.124 123.733 178.03 122.233 178.03 119.405C178.03 116.593 177.108 115.046 175.593 115.046C174.077 115.046 173.155 116.593 173.155 119.405C173.155 122.233 174.061 123.733 175.593 123.733Z" fill="#999999"/>
<path d="M140.468 0.000976562C158.92 0.000975813 177.19 3.6498 194.235 10.7373C211.28 17.8248 226.766 28.2118 239.808 41.3037C252.849 54.3955 263.192 69.9362 270.248 87.0361C277.375 104.308 280.467 122.661 280.467 140.969V146.202C280.467 149.093 278.123 151.437 275.232 151.437C272.342 151.437 269.998 149.093 269.998 146.203V140.969C269.998 140.969 269.998 140.969 269.999 140.969C269.999 140.969 269.999 140.969 269.999 140.968C269.999 140.903 269.998 140.838 269.998 140.773V139.757C269.998 139.756 269.997 139.755 269.996 139.755C269.994 139.755 269.993 139.754 269.993 139.752C269.863 123.564 267.134 107.546 261.174 92.5166L260.572 91.0283C254.243 75.6902 245.058 61.7098 233.516 49.834L232.392 48.6914C220.697 36.9522 206.883 27.5641 191.691 21.0264L190.217 20.4023C174.444 13.8441 157.54 10.4687 140.468 10.4688C123.396 10.4688 106.491 13.8441 90.7188 20.4023C74.9465 26.9606 60.6155 36.5734 48.5439 48.6914L47.4199 49.834C35.8772 61.7098 26.6922 75.6902 20.3633 91.0283C13.8598 106.79 10.4983 123.678 10.468 140.736C10.4678 140.865 10.5718 140.969 10.7002 140.969C10.8286 140.969 10.9326 141.073 10.9326 141.201V146.203C10.9326 149.093 8.58933 151.437 5.69873 151.437H5.46631C2.44735 151.437 0 148.989 0 145.97V140.969C5.03522e-07 122.462 3.63174 104.136 10.6875 87.0361C17.7434 69.9362 28.0864 54.3955 41.1279 41.3037C54.1696 28.2119 69.6551 17.8248 86.7002 10.7373C103.745 3.64981 122.016 0.000977372 140.468 0.000976562Z" fill="#EA5050"/>
</svg>
