<svg width="282" height="153" viewBox="0 0 282 153" fill="none" xmlns="http://www.w3.org/2000/svg">
<path d="M141.468 -0.000976562C159.92 -0.000977312 178.19 3.64883 195.235 10.7363C212.28 17.8238 227.766 28.2109 240.808 41.3027C253.849 54.3945 264.192 69.9352 271.248 87.0352C278.375 104.307 281.467 122.66 281.467 140.968V146.201C281.467 149.092 279.123 151.436 276.232 151.436C273.342 151.436 270.998 149.092 270.998 146.202V140.968C270.998 140.968 270.998 140.968 270.999 140.968C270.999 140.968 270.999 140.968 270.999 140.967C270.999 140.902 270.998 140.837 270.998 140.772V139.756C270.998 139.755 270.997 139.754 270.996 139.754C270.994 139.754 270.993 139.753 270.993 139.751C270.863 123.563 268.134 107.545 262.174 92.5156L261.572 91.0273C255.243 75.6892 246.058 61.7089 234.516 49.833L233.392 48.6904C221.697 36.9512 207.883 27.5631 192.691 21.0254L191.217 20.4014C175.444 13.8431 158.54 10.4678 141.468 10.4678C124.396 10.4678 107.491 13.8431 91.7188 20.4014C75.9465 26.9596 61.6155 36.5725 49.5439 48.6904L48.4199 49.833C36.8772 61.7089 27.6922 75.6892 21.3633 91.0273C14.8598 106.789 11.4983 123.677 11.468 140.735C11.4678 140.864 11.5718 140.968 11.7002 140.968C11.8286 140.968 11.9326 141.072 11.9326 141.2V146.202C11.9326 149.092 9.58933 151.436 6.69873 151.436H6.46631C3.44735 151.436 1 148.988 1 145.969V140.968C1 122.461 4.63174 104.135 11.6875 87.0352C18.7434 69.9352 29.0864 54.3945 42.1279 41.3027C55.1696 28.2109 70.6551 17.8238 87.7002 10.7363C104.745 3.64883 123.016 -0.000975753 141.468 -0.000976562Z" fill="#E5E5E5"/>
<path d="M127.073 126.55C119.749 126.55 114.524 122.595 114.329 116.833H119.798C119.993 119.958 123.069 121.911 127.024 121.911C131.272 121.911 134.397 119.567 134.397 116.149C134.397 112.683 131.468 110.144 126.438 110.144H123.411V105.749H126.438C130.442 105.749 133.274 103.503 133.274 100.134C133.274 96.9111 130.882 94.7139 127.122 94.7139C123.558 94.7139 120.433 96.667 120.286 99.8896H115.11C115.257 94.1279 120.579 90.2217 127.171 90.2217C134.104 90.2217 138.499 94.6162 138.45 99.8408C138.499 103.845 136.009 106.774 132.2 107.702V107.946C137.034 108.63 139.817 111.853 139.817 116.345C139.817 122.253 134.397 126.55 127.073 126.55Z" fill="#EA5050"/>
<path d="M150.798 113.218L147.158 126.765H145.673L149.314 113.218H150.798ZM159.26 113.749V125.062H157.526V115.468H157.463L154.76 117.233V115.593L157.573 113.749H159.26ZM165.593 125.218C162.968 125.218 161.436 123.108 161.436 119.405C161.436 115.733 162.999 113.593 165.593 113.593C168.186 113.593 169.749 115.733 169.749 119.405C169.749 123.108 168.202 125.218 165.593 125.218ZM165.593 123.733C167.124 123.733 168.03 122.233 168.03 119.405C168.03 116.593 167.108 115.046 165.593 115.046C164.077 115.046 163.155 116.593 163.155 119.405C163.155 122.233 164.061 123.733 165.593 123.733Z" fill="#999999"/>
<path d="M6.58619 146.604C2 73 60.4994 32 60.4994 32" stroke="#EA5050" stroke-width="11" stroke-linecap="round"/>
</svg>
