<svg width="282" height="153" viewBox="0 0 282 153" fill="none" xmlns="http://www.w3.org/2000/svg">
<path d="M141.468 0.000976562C159.92 0.000975813 178.19 3.6498 195.235 10.7373C212.28 17.8248 227.766 28.2118 240.808 41.3037C253.849 54.3955 264.192 69.9362 271.248 87.0361C278.375 104.308 281.467 122.661 281.467 140.969V146.202C281.467 149.093 279.123 151.437 276.232 151.437C273.342 151.437 270.998 149.093 270.998 146.203V140.969C270.998 140.969 270.998 140.969 270.999 140.969C270.999 140.969 270.999 140.969 270.999 140.968C270.999 140.903 270.998 140.838 270.998 140.773V139.757C270.998 139.756 270.997 139.755 270.996 139.755C270.994 139.755 270.993 139.754 270.993 139.752C270.863 123.564 268.134 107.546 262.174 92.5166L261.572 91.0283C255.243 75.6902 246.058 61.7098 234.516 49.834L233.392 48.6914C221.697 36.9522 207.883 27.5641 192.691 21.0264L191.217 20.4023C175.444 13.8441 158.54 10.4687 141.468 10.4688C124.396 10.4688 107.491 13.8441 91.7188 20.4023C75.9465 26.9606 61.6155 36.5734 49.5439 48.6914L48.4199 49.834C36.8772 61.7098 27.6922 75.6902 21.3633 91.0283C14.8598 106.79 11.4983 123.678 11.468 140.736C11.4678 140.865 11.5718 140.969 11.7002 140.969C11.8286 140.969 11.9326 141.073 11.9326 141.201V146.203C11.9326 149.093 9.58933 151.437 6.69873 151.437H6.46631C3.44735 151.437 1 148.989 1 145.97V140.969C1 122.462 4.63174 104.136 11.6875 87.0361C18.7434 69.9362 29.0864 54.3955 42.1279 41.3037C55.1696 28.2119 70.6551 17.8248 87.7002 10.7373C104.745 3.64981 123.016 0.000977372 141.468 0.000976562Z" fill="#E5E5E5"/>
<path d="M113.475 119.178V114.832L129.1 90.7109H135.74V114.637H140.574V119.178H135.74V126.062H130.662V119.178H113.475ZM119.139 114.637H130.662V97.1074H130.271L119.139 114.344V114.637Z" fill="#EA5050"/>
<path d="M150.798 113.219L147.158 126.766H145.673L149.314 113.219H150.798ZM159.26 113.75V125.062H157.526V115.469H157.463L154.76 117.234V115.594L157.573 113.75H159.26ZM165.593 125.219C162.968 125.219 161.436 123.109 161.436 119.406C161.436 115.734 162.999 113.594 165.593 113.594C168.186 113.594 169.749 115.734 169.749 119.406C169.749 123.109 168.202 125.219 165.593 125.219ZM165.593 123.734C167.124 123.734 168.03 122.234 168.03 119.406C168.03 116.594 167.108 115.047 165.593 115.047C164.077 115.047 163.155 116.594 163.155 119.406C163.155 122.234 164.061 123.734 165.593 123.734Z" fill="#999999"/>
<path d="M6.58554 146.605C3.00002 66.001 67.4989 27.001 67.4989 27.001C74.666 22.1673 87 16 98.5 12" stroke="#EA5050" stroke-width="11" stroke-linecap="round"/>
</svg>
