<svg width="282" height="154" viewBox="0 0 282 154" fill="none" xmlns="http://www.w3.org/2000/svg">
<path d="M141.468 0.999023C159.92 0.999023 178.19 4.64883 195.235 11.7363C212.28 18.8238 227.766 29.2109 240.808 42.3027C253.849 55.3945 264.192 70.9352 271.248 88.0352C278.375 105.307 281.467 123.66 281.467 141.968V147.201C281.467 150.092 279.123 152.436 276.232 152.436C273.342 152.436 270.998 150.092 270.998 147.202V141.968C270.998 141.968 270.998 141.968 270.999 141.968C270.999 141.968 270.999 141.968 270.999 141.967C270.999 141.902 270.998 141.837 270.998 141.772V140.756C270.998 140.755 270.997 140.754 270.996 140.754C270.994 140.754 270.993 140.753 270.993 140.751C270.863 124.563 268.134 108.545 262.174 93.5156L261.572 92.0273C255.243 76.6892 246.058 62.7089 234.516 50.833L233.392 49.6904C221.697 37.9512 207.883 28.5631 192.691 22.0254L191.217 21.4014C175.444 14.8431 158.54 11.4678 141.468 11.4678C124.396 11.4678 107.491 14.8431 91.7188 21.4014C75.9465 27.9596 61.6155 37.5725 49.5439 49.6904L48.4199 50.833C36.8772 62.7089 27.6922 76.6892 21.3633 92.0273C14.8598 107.789 11.4983 124.677 11.468 141.735C11.4678 141.864 11.5718 141.968 11.7002 141.968C11.8286 141.968 11.9326 142.072 11.9326 142.2V147.202C11.9326 150.092 9.58933 152.436 6.69873 152.436H6.46631C3.44735 152.436 1 149.988 1 146.969V141.968C1 123.461 4.63174 105.135 11.6875 88.0352C18.7434 70.9352 29.0864 55.3945 42.1279 42.3027C55.1696 29.2109 70.6551 18.8238 87.7002 11.7363C104.745 4.64883 123.016 0.999024 141.468 0.999023Z" fill="#E5E5E5"/>
<path d="M127.476 127.55C120.786 127.55 115.757 123.448 115.513 117.833H120.737C121.03 120.86 123.911 123.058 127.476 123.058C131.772 123.058 134.849 119.933 134.849 115.733C134.849 111.437 131.675 108.312 127.231 108.263C124.399 108.263 122.251 109.19 121.03 111.388H115.952L118.247 91.71H138.267V96.2998H122.69L121.519 106.212H121.86C123.325 104.796 125.815 103.819 128.501 103.819C135.142 103.819 140.073 108.751 140.073 115.587C140.073 122.569 134.849 127.55 127.476 127.55Z" fill="#EA5050"/>
<path d="M150.798 114.218L147.158 127.765H145.673L149.314 114.218H150.798ZM159.26 114.749V126.062H157.526V116.468H157.463L154.76 118.233V116.593L157.573 114.749H159.26ZM165.593 126.218C162.968 126.218 161.436 124.108 161.436 120.405C161.436 116.733 162.999 114.593 165.593 114.593C168.186 114.593 169.749 116.733 169.749 120.405C169.749 124.108 168.202 126.218 165.593 126.218ZM165.593 124.733C167.124 124.733 168.03 123.233 168.03 120.405C168.03 117.593 167.108 116.046 165.593 116.046C164.077 116.046 163.155 117.593 163.155 120.405C163.155 123.233 164.061 124.733 165.593 124.733Z" fill="#999999"/>
<path d="M6.58696 148.062C5.08655 113.572 16.4648 68.0615 57.4656 35.5615C68.2583 26.3834 102.665 6.06152 141.465 6.06152" stroke="#EA5050" stroke-width="11" stroke-linecap="round"/>
</svg>
