<svg width="282" height="154" viewBox="0 0 282 154" fill="none" xmlns="http://www.w3.org/2000/svg">
<path d="M141.468 1.00098C159.92 1.00098 178.19 4.6498 195.235 11.7373C212.28 18.8248 227.766 29.2118 240.808 42.3037C253.849 55.3955 264.192 70.9362 271.248 88.0361C278.375 105.308 281.467 123.661 281.467 141.969V147.202C281.467 150.093 279.123 152.437 276.232 152.437C273.342 152.437 270.998 150.093 270.998 147.203V141.969C270.998 141.969 270.998 141.969 270.999 141.969C270.999 141.969 270.999 141.969 270.999 141.968C270.999 141.903 270.998 141.838 270.998 141.773V140.757C270.998 140.756 270.997 140.755 270.996 140.755C270.994 140.755 270.993 140.754 270.993 140.752C270.863 124.564 268.134 108.546 262.174 93.5166L261.572 92.0283C255.243 76.6902 246.058 62.7098 234.516 50.834L233.392 49.6914C221.697 37.9522 207.883 28.5641 192.691 22.0264L191.217 21.4023C175.444 14.8441 158.54 11.4687 141.468 11.4688C124.396 11.4688 107.491 14.8441 91.7188 21.4023C75.9465 27.9606 61.6155 37.5734 49.5439 49.6914L48.4199 50.834C36.8772 62.7098 27.6922 76.6902 21.3633 92.0283C14.8598 107.79 11.4983 124.678 11.468 141.736C11.4678 141.865 11.5718 141.969 11.7002 141.969C11.8286 141.969 11.9326 142.073 11.9326 142.201V147.203C11.9326 150.093 9.58933 152.437 6.69873 152.437H6.46631C3.44735 152.437 1 149.989 1 146.97V141.969C1 123.462 4.63174 105.136 11.6875 88.0361C18.7434 70.9362 29.0864 55.3955 42.1279 42.3037C55.1696 29.2119 70.6551 18.8248 87.7002 11.7373C104.745 4.64981 123.016 1.00098 141.468 1.00098Z" fill="#E5E5E5"/>
<path d="M127.342 127.551C120.799 127.502 113.963 123.645 113.963 110.559C113.963 98.2539 119.285 91.2227 127.781 91.2227C134.275 91.2227 138.816 95.2754 139.646 100.891H134.324C133.641 98.0098 131.346 95.9102 127.781 95.9102C122.312 95.9102 119.139 100.695 119.139 108.654H119.529C121.434 105.676 124.754 103.869 128.611 103.869C134.91 103.869 139.988 108.703 139.988 115.49C139.988 122.326 134.959 127.6 127.342 127.551ZM127.293 123.059C131.59 123.059 134.764 119.738 134.764 115.588C134.764 111.535 131.688 108.264 127.439 108.264C123.094 108.264 119.822 111.682 119.773 115.637C119.822 119.543 122.947 123.059 127.293 123.059Z" fill="#EA5050"/>
<path d="M150.798 114.219L147.158 127.766H145.673L149.314 114.219H150.798ZM159.26 114.75V126.062H157.526V116.469H157.463L154.76 118.234V116.594L157.573 114.75H159.26ZM165.593 126.219C162.968 126.219 161.436 124.109 161.436 120.406C161.436 116.734 162.999 114.594 165.593 114.594C168.186 114.594 169.749 116.734 169.749 120.406C169.749 124.109 168.202 126.219 165.593 126.219ZM165.593 124.734C167.124 124.734 168.03 123.234 168.03 120.406C168.03 117.594 167.108 116.047 165.593 116.047C164.077 116.047 163.155 117.594 163.155 120.406C163.155 123.234 164.061 124.734 165.593 124.734Z" fill="#999999"/>
<path d="M6.58695 148.062C5.08654 113.572 16.4648 68.0615 57.4656 35.5615C68.2583 26.3834 102.665 6.06152 141.465 6.06152C157.5 6.06152 180.5 9.99902 197.5 18.499" stroke="#EA5050" stroke-width="11" stroke-linecap="round"/>
</svg>
