<svg width="281" height="152" viewBox="0 0 281 152" fill="none" xmlns="http://www.w3.org/2000/svg">
<g clip-path="url(#clip0_237_371)">
<path d="M140.468 0.000976562C158.92 0.000975813 177.19 3.6498 194.235 10.7373C211.28 17.8248 226.766 28.2118 239.808 41.3037C252.849 54.3955 263.192 69.9362 270.248 87.0361C277.375 104.308 280.467 122.661 280.467 140.969V146.202C280.467 149.093 278.123 151.437 275.232 151.437C272.342 151.437 269.998 149.093 269.998 146.203V140.969C269.998 140.969 269.998 140.969 269.999 140.969C269.999 140.969 269.999 140.969 269.999 140.968C269.999 140.903 269.998 140.838 269.998 140.773V139.757C269.998 139.756 269.997 139.755 269.996 139.755C269.994 139.755 269.993 139.754 269.993 139.752C269.863 123.564 267.134 107.546 261.174 92.5166L260.572 91.0283C254.243 75.6902 245.058 61.7098 233.516 49.834L232.392 48.6914C220.697 36.9522 206.883 27.5641 191.691 21.0264L190.217 20.4023C174.444 13.8441 157.54 10.4687 140.468 10.4688C123.396 10.4688 106.491 13.8441 90.7188 20.4023C74.9465 26.9606 60.6155 36.5734 48.5439 48.6914L47.4199 49.834C35.8772 61.7098 26.6922 75.6902 20.3633 91.0283C13.8598 106.79 10.4983 123.678 10.468 140.736C10.4678 140.865 10.5718 140.969 10.7002 140.969C10.8286 140.969 10.9326 141.073 10.9326 141.201V146.203C10.9326 149.093 8.58933 151.437 5.69873 151.437H5.46631C2.44735 151.437 0 148.989 0 145.97V140.969C5.03522e-07 122.462 3.63174 104.136 10.6875 87.0361C17.7434 69.9362 28.0864 54.3955 41.1279 41.3037C54.1696 28.2119 69.6551 17.8248 86.7002 10.7373C103.745 3.64981 122.016 0.000977372 140.468 0.000976562Z" fill="#E5E5E5"/>
<path d="M126.524 126.551C118.858 126.551 113.487 122.4 113.536 116.639C113.487 112.098 116.759 108.387 120.909 107.752V107.557C117.296 106.727 114.854 103.504 114.854 99.6465C114.854 94.2266 119.786 90.2227 126.524 90.2227C133.214 90.2227 138.097 94.2266 138.146 99.6465C138.097 103.504 135.655 106.727 132.091 107.557V107.752C136.192 108.387 139.464 112.098 139.513 116.639C139.464 122.4 134.093 126.551 126.524 126.551ZM126.524 122.107C131.114 122.107 134.044 119.715 134.044 116.248C134.044 112.586 130.87 109.949 126.524 109.949C122.13 109.949 118.907 112.586 119.005 116.248C118.907 119.715 121.837 122.107 126.524 122.107ZM126.524 105.701C130.235 105.701 132.872 103.455 132.872 100.135C132.872 96.8633 130.284 94.6172 126.524 94.6172C122.618 94.6172 120.079 96.8145 120.079 100.135C120.079 103.455 122.765 105.701 126.524 105.701Z" fill="#EA5050"/>
<path d="M149.798 113.219L146.158 126.766H144.673L148.314 113.219H149.798ZM158.26 113.75V125.062H156.526V115.469H156.463L153.76 117.234V115.594L156.573 113.75H158.26ZM164.593 125.219C161.968 125.219 160.436 123.109 160.436 119.406C160.436 115.734 161.999 113.594 164.593 113.594C167.186 113.594 168.749 115.734 168.749 119.406C168.749 123.109 167.202 125.219 164.593 125.219ZM164.593 123.734C166.124 123.734 167.03 122.234 167.03 119.406C167.03 116.594 166.108 115.047 164.593 115.047C163.077 115.047 162.155 116.594 162.155 119.406C162.155 122.234 163.061 123.734 164.593 123.734Z" fill="#999999"/>
<path d="M5.4737 146.605C3.97329 112.105 15.9736 66.1292 59.4737 32.1048C109.974 -7.39486 188.852 -0.937534 230.352 40.0625C240.387 48.5 253.387 64 259.387 76.5" stroke="#EA5050" stroke-width="11" stroke-linecap="round"/>
</g>
<defs>
<clipPath id="clip0_237_371">
<rect width="280.467" height="151.437" fill="white"/>
</clipPath>
</defs>
</svg>
