<svg width="281" height="152" viewBox="0 0 281 152" fill="none" xmlns="http://www.w3.org/2000/svg">
<g clip-path="url(#clip0_237_378)">
<path d="M140.468 0C158.92 -7.49133e-07 177.19 3.6498 194.235 10.7373C211.28 17.8248 226.766 28.2118 239.808 41.3037C252.849 54.3955 263.192 69.9362 270.248 87.0361C277.375 104.308 280.467 122.661 280.467 140.969V146.202C280.467 149.093 278.123 151.437 275.232 151.437C272.342 151.437 269.998 149.093 269.998 146.203V140.969C269.998 140.969 269.998 140.969 269.999 140.969C269.999 140.969 269.999 140.969 269.999 140.968C269.999 140.903 269.998 140.838 269.998 140.773V139.757C269.998 139.756 269.997 139.755 269.996 139.755C269.994 139.755 269.993 139.754 269.993 139.752C269.863 123.564 267.134 107.546 261.174 92.5166L260.572 91.0283C254.243 75.6902 245.058 61.7098 233.516 49.834L232.392 48.6914C220.697 36.9522 206.883 27.5641 191.691 21.0264L190.217 20.4023C174.444 13.8441 157.54 10.4687 140.468 10.4688C123.396 10.4688 106.491 13.8441 90.7188 20.4023C74.9465 26.9606 60.6155 36.5734 48.5439 48.6914L47.4199 49.834C35.8772 61.7098 26.6922 75.6902 20.3633 91.0283C13.8598 106.79 10.4983 123.678 10.468 140.736C10.4678 140.865 10.5718 140.969 10.7002 140.969C10.8286 140.969 10.9326 141.073 10.9326 141.201V146.203C10.9326 149.093 8.58933 151.437 5.69873 151.437H5.46631C2.44735 151.437 0 148.989 0 145.97V140.969C5.03522e-07 122.462 3.63174 104.136 10.6875 87.0361C17.7434 69.9362 28.0864 54.3955 41.1279 41.3037C54.1696 28.2119 69.6551 17.8248 86.7002 10.7373C103.745 3.64981 122.016 8.09669e-07 140.468 0Z" fill="#E5E5E5"/>
<path d="M125.707 90.2227C132.201 90.2715 139.037 94.1777 139.037 107.117C139.037 119.52 133.715 126.551 125.219 126.551C118.725 126.551 114.135 122.547 113.305 116.785H118.627C119.359 119.764 121.654 121.863 125.219 121.863C130.688 121.863 133.861 117.078 133.91 109.021H133.471C131.566 112 128.246 113.807 124.438 113.807C118.09 113.807 113.012 108.973 113.012 102.186C113.012 95.4473 118.041 90.1738 125.707 90.2227ZM125.707 94.7148C121.41 94.7148 118.236 98.0352 118.236 102.088C118.236 106.189 121.312 109.412 125.609 109.412C129.857 109.412 133.178 105.945 133.178 102.039C133.178 98.2305 130.053 94.7148 125.707 94.7148Z" fill="#EA5050"/>
<path d="M149.798 113.219L146.158 126.766H144.673L148.314 113.219H149.798ZM158.26 113.75V125.062H156.526V115.469H156.463L153.76 117.234V115.594L156.573 113.75H158.26ZM164.593 125.219C161.968 125.219 160.436 123.109 160.436 119.406C160.436 115.734 161.999 113.594 164.593 113.594C167.186 113.594 168.749 115.734 168.749 119.406C168.749 123.109 167.202 125.219 164.593 125.219ZM164.593 123.734C166.124 123.734 167.03 122.234 167.03 119.406C167.03 116.594 166.108 115.047 164.593 115.047C163.077 115.047 162.155 116.594 162.155 119.406C162.155 122.234 163.061 123.734 164.593 123.734Z" fill="#999999"/>
<path d="M5.58698 146.604C4.08657 112.104 16.0869 66.1282 59.587 32.1038C110.087 -7.39583 188.965 -0.938511 230.465 40.0615C240.5 48.499 266 77.5 272 109.5" stroke="#EA5050" stroke-width="11" stroke-linecap="round"/>
</g>
<defs>
<clipPath id="clip0_237_378">
<rect width="280.467" height="151.437" fill="white"/>
</clipPath>
</defs>
</svg>
