<svg width="44" height="43" viewBox="0 0 44 43" fill="none" xmlns="http://www.w3.org/2000/svg">
<mask id="mask0_281_203" style="mask-type:alpha" maskUnits="userSpaceOnUse" x="0" y="0" width="44" height="43">
<rect x="0.5" width="43" height="43" fill="#D9D9D9"/>
</mask>
<g mask="url(#mask0_281_203)">
<path d="M22 38.4865C18.1249 37.4298 14.9166 35.1488 12.3752 31.6437C9.83339 28.1386 8.5625 24.2199 8.5625 19.8877V9.57889L22 4.54834L35.4375 9.57889V19.7291C35.0194 19.5592 34.5806 19.4059 34.1211 19.2691C33.6618 19.1327 33.2048 19.0253 32.75 18.9471V11.4498L22 7.43561L11.25 11.4498V19.8877C11.25 21.4748 11.474 23.0248 11.9219 24.5375C12.3698 26.05 12.9872 27.4638 13.774 28.7788C14.5606 30.0939 15.5006 31.2746 16.5941 32.321C17.6873 33.3673 18.8737 34.2028 20.1532 34.8275L20.2052 34.81C20.4417 35.467 20.7482 36.0965 21.1248 36.6985C21.5016 37.3002 21.93 37.8468 22.4098 38.3383C22.3343 38.3613 22.2661 38.3861 22.2051 38.4126C22.1442 38.4389 22.0758 38.4636 22 38.4865Z" fill="#1C1B1F"/>
<path d="M30.959 30.458C31.7055 30.458 32.3401 30.1967 32.8626 29.6742C33.3852 29.1516 33.6465 28.517 33.6465 27.7705C33.6465 27.024 33.3852 26.3894 32.8626 25.8669C32.3401 25.3443 31.7055 25.083 30.959 25.083C30.2125 25.083 29.5779 25.3443 29.0553 25.8669C28.5328 26.3894 28.2715 27.024 28.2715 27.7705C28.2715 28.517 28.5328 29.1516 29.0553 29.6742C29.5779 30.1967 30.2125 30.458 30.959 30.458ZM30.959 35.833C31.896 35.833 32.7499 35.6194 33.5206 35.192C34.2913 34.7647 34.9213 34.1927 35.4104 33.4761C34.7421 33.0765 34.0347 32.7722 33.2882 32.5632C32.5416 32.3542 31.7652 32.2497 30.959 32.2497C30.1527 32.2497 29.3763 32.3542 28.6298 32.5632C27.8833 32.7722 27.1759 33.0765 26.5076 33.4761C26.9967 34.1927 27.6266 34.7647 28.3973 35.192C29.1681 35.6194 30.0219 35.833 30.959 35.833ZM30.959 38.5205C28.7218 38.5205 26.8187 37.7361 25.2498 36.1672C23.6809 34.5983 22.8965 32.6952 22.8965 30.458C22.8965 28.2208 23.6809 26.3178 25.2498 24.7489C26.8187 23.18 28.7218 22.3955 30.959 22.3955C33.1962 22.3955 35.0992 23.18 36.6681 24.7489C38.237 26.3178 39.0215 28.2208 39.0215 30.458C39.0215 32.6952 38.237 34.5983 36.6681 36.1672C35.0992 37.7361 33.1962 38.5205 30.959 38.5205Z" fill="#EA5050"/>
</g>
</svg>
