<svg width="40" height="40" viewBox="0 0 40 40" fill="none" xmlns="http://www.w3.org/2000/svg">
<mask id="mask0_237_227" style="mask-type:alpha" maskUnits="userSpaceOnUse" x="0" y="0" width="40" height="40">
<rect width="40" height="40" fill="#D9D9D9"/>
</mask>
<g mask="url(#mask0_237_227)">
<path d="M20.0032 35.8332C17.8132 35.8332 15.7548 35.4176 13.8278 34.5865C11.9009 33.7554 10.2248 32.6275 8.79949 31.2028C7.37421 29.778 6.24574 28.1026 5.41408 26.1765C4.58269 24.2504 4.16699 22.1925 4.16699 20.0028C4.16699 17.8128 4.58255 15.7543 5.41366 13.8273C6.24477 11.9004 7.37269 10.2243 8.79741 8.799C10.2221 7.37373 11.8975 6.24525 13.8237 5.41359C15.7498 4.5822 17.8077 4.1665 19.9974 4.1665C22.1874 4.1665 24.2459 4.58206 26.1728 5.41317C28.0998 6.24428 29.7759 7.3722 31.2012 8.79692C32.6264 10.2216 33.7549 11.8971 34.5866 13.8232C35.418 15.7493 35.8337 17.8072 35.8337 19.9969C35.8337 22.1869 35.4181 24.2454 34.587 26.1723C33.7559 28.0993 32.628 29.7754 31.2032 31.2007C29.7785 32.6259 28.1031 33.7544 26.177 34.5861C24.2509 35.4175 22.193 35.8332 20.0032 35.8332ZM20.0003 33.3332C23.7225 33.3332 26.8753 32.0415 29.4587 29.4582C32.042 26.8748 33.3337 23.7221 33.3337 19.9998C33.3337 16.2776 32.042 13.1248 29.4587 10.5415C26.8753 7.95817 23.7225 6.6665 20.0003 6.6665C16.2781 6.6665 13.1253 7.95817 10.542 10.5415C7.95866 13.1248 6.66699 16.2776 6.66699 19.9998C6.66699 23.7221 7.95866 26.8748 10.542 29.4582C13.1253 32.0415 16.2781 33.3332 20.0003 33.3332Z" fill="#1C1B1F"/>
</g>
</svg>
