<svg width="50" height="50" viewBox="0 0 50 50" fill="none" xmlns="http://www.w3.org/2000/svg">
<mask id="mask0_237_227" style="mask-type:alpha" maskUnits="userSpaceOnUse" x="0" y="0" width="50" height="50">
<rect width="50" height="50" fill="#D9D9D9"/>
</mask>
<g mask="url(#mask0_237_227)">
<path d="M25.0043 44.7913C22.2668 44.7913 19.6937 44.2719 17.285 43.233C14.8763 42.1941 12.7812 40.7842 10.9996 39.0033C9.21801 37.2224 7.80742 35.1281 6.76784 32.7205C5.7286 30.3129 5.20898 27.7405 5.20898 25.0033C5.20898 22.2658 5.72843 19.6927 6.76732 17.284C7.80621 14.8754 9.2161 12.7802 10.997 10.9986C12.7779 9.21704 14.8722 7.80644 17.2798 6.76686C19.6875 5.72763 22.2599 5.20801 24.997 5.20801C27.7345 5.20801 30.3076 5.72745 32.7163 6.76634C35.125 7.80523 37.2201 9.21513 39.0017 10.996C40.7833 12.7769 42.1939 14.8712 43.2335 17.2788C44.2727 19.6865 44.7923 22.2589 44.7923 24.996C44.7923 27.7335 44.2729 30.3066 43.234 32.7153C42.1951 35.124 40.7852 37.2191 39.0043 39.0007C37.2234 40.7823 35.1291 42.1929 32.7215 43.2325C30.3138 44.2717 27.7414 44.7913 25.0043 44.7913ZM25.0007 41.6663C29.6534 41.6663 33.5944 40.0518 36.8236 36.8226C40.0527 33.5934 41.6673 29.6525 41.6673 24.9997C41.6673 20.3469 40.0527 16.4059 36.8236 13.1768C33.5944 9.94759 29.6534 8.33301 25.0007 8.33301C20.3479 8.33301 16.4069 9.94759 13.1777 13.1768C9.94857 16.4059 8.33398 20.3469 8.33398 24.9997C8.33398 29.6525 9.94857 33.5934 13.1777 36.8226C16.4069 40.0518 20.3479 41.6663 25.0007 41.6663Z" fill="white"/>
</g>
</svg>
