<svg width="25" height="16" viewBox="0 0 25 16" fill="none" xmlns="http://www.w3.org/2000/svg">
<path d="M3.26172 15.8496C2.20703 15.8496 1.40951 15.5794 0.869141 15.0391C0.328776 14.5052 0.0585938 13.7142 0.0585938 12.666V3.21289C0.0585938 2.17122 0.328776 1.38346 0.869141 0.849609C1.40951 0.315755 2.20703 0.0488281 3.26172 0.0488281H21.7285C22.7767 0.0488281 23.571 0.315755 24.1113 0.849609C24.6582 1.38346 24.9316 2.17122 24.9316 3.21289V12.666C24.9316 13.7077 24.6582 14.4987 24.1113 15.0391C23.571 15.5794 22.7767 15.8496 21.7285 15.8496H3.26172ZM3.98438 5.6543H4.92188C5.2474 5.6543 5.41016 5.49479 5.41016 5.17578V4.23828C5.41016 3.91927 5.2474 3.75977 4.92188 3.75977H3.98438C3.67839 3.75977 3.52539 3.91927 3.52539 4.23828V5.17578C3.52539 5.49479 3.67839 5.6543 3.98438 5.6543ZM7.19727 5.6543H8.13477C8.44727 5.6543 8.60352 5.49479 8.60352 5.17578V4.23828C8.60352 3.91927 8.44727 3.75977 8.13477 3.75977H7.19727C6.87826 3.75977 6.71875 3.91927 6.71875 4.23828V5.17578C6.71875 5.49479 6.87826 5.6543 7.19727 5.6543ZM10.4102 5.6543H11.3379C11.6569 5.6543 11.8164 5.49479 11.8164 5.17578V4.23828C11.8164 3.91927 11.6569 3.75977 11.3379 3.75977H10.4102C10.0911 3.75977 9.93164 3.91927 9.93164 4.23828V5.17578C9.93164 5.49479 10.0911 5.6543 10.4102 5.6543ZM13.6133 5.6543H14.5508C14.8698 5.6543 15.0293 5.49479 15.0293 5.17578V4.23828C15.0293 3.91927 14.8698 3.75977 14.5508 3.75977H13.6133C13.3008 3.75977 13.1445 3.91927 13.1445 4.23828V5.17578C13.1445 5.49479 13.3008 5.6543 13.6133 5.6543ZM16.8457 5.6543H17.7637C18.0762 5.6543 18.2324 5.49479 18.2324 5.17578V4.23828C18.2324 3.91927 18.0762 3.75977 17.7637 3.75977H16.8457C16.5137 3.75977 16.3477 3.91927 16.3477 4.23828V5.17578C16.3477 5.49479 16.5137 5.6543 16.8457 5.6543ZM20.0391 5.6543H20.9668C21.2793 5.6543 21.4355 5.49479 21.4355 5.17578V4.23828C21.4355 3.91927 21.2793 3.75977 20.9668 3.75977H20.0391C19.7135 3.75977 19.5508 3.91927 19.5508 4.23828V5.17578C19.5508 5.49479 19.7135 5.6543 20.0391 5.6543ZM3.98438 8.88672H4.92188C5.2474 8.88672 5.41016 8.72721 5.41016 8.4082V7.4707C5.41016 7.15169 5.2474 6.99219 4.92188 6.99219H3.98438C3.67839 6.99219 3.52539 7.15169 3.52539 7.4707V8.4082C3.52539 8.72721 3.67839 8.88672 3.98438 8.88672ZM7.19727 8.88672H8.13477C8.44727 8.88672 8.60352 8.72721 8.60352 8.4082V7.4707C8.60352 7.15169 8.44727 6.99219 8.13477 6.99219H7.19727C6.87826 6.99219 6.71875 7.15169 6.71875 7.4707V8.4082C6.71875 8.72721 6.87826 8.88672 7.19727 8.88672ZM10.4102 8.88672H11.3379C11.6569 8.88672 11.8164 8.72721 11.8164 8.4082V7.4707C11.8164 7.15169 11.6569 6.99219 11.3379 6.99219H10.4102C10.0911 6.99219 9.93164 7.15169 9.93164 7.4707V8.4082C9.93164 8.72721 10.0911 8.88672 10.4102 8.88672ZM13.6133 8.88672H14.5508C14.8698 8.88672 15.0293 8.72721 15.0293 8.4082V7.4707C15.0293 7.15169 14.8698 6.99219 14.5508 6.99219H13.6133C13.3008 6.99219 13.1445 7.15169 13.1445 7.4707V8.4082C13.1445 8.72721 13.3008 8.88672 13.6133 8.88672ZM16.8457 8.88672H17.7637C18.0762 8.88672 18.2324 8.72721 18.2324 8.4082V7.4707C18.2324 7.15169 18.0762 6.99219 17.7637 6.99219H16.8457C16.5137 6.99219 16.3477 7.15169 16.3477 7.4707V8.4082C16.3477 8.72721 16.5137 8.88672 16.8457 8.88672ZM20.0391 8.88672H20.9668C21.2793 8.88672 21.4355 8.72721 21.4355 8.4082V7.4707C21.4355 7.15169 21.2793 6.99219 20.9668 6.99219H20.0391C19.7135 6.99219 19.5508 7.15169 19.5508 7.4707V8.4082C19.5508 8.72721 19.7135 8.88672 20.0391 8.88672ZM3.98438 12.1191H4.92188C5.2474 12.1191 5.41016 11.9596 5.41016 11.6406V10.7031C5.41016 10.3841 5.2474 10.2246 4.92188 10.2246H3.98438C3.67839 10.2246 3.52539 10.3841 3.52539 10.7031V11.6406C3.52539 11.9596 3.67839 12.1191 3.98438 12.1191ZM7.28516 12.1191H17.6758C18.0469 12.1191 18.2324 11.9303 18.2324 11.5527V10.7812C18.2324 10.4102 18.0469 10.2246 17.6758 10.2246H7.28516C6.90755 10.2246 6.71875 10.4102 6.71875 10.7812V11.5527C6.71875 11.9303 6.90755 12.1191 7.28516 12.1191ZM20.0391 12.1191H20.9668C21.2793 12.1191 21.4355 11.9596 21.4355 11.6406V10.7031C21.4355 10.3841 21.2793 10.2246 20.9668 10.2246H20.0391C19.7135 10.2246 19.5508 10.3841 19.5508 10.7031V11.6406C19.5508 11.9596 19.7135 12.1191 20.0391 12.1191Z" fill="white"/>
</svg>
