<svg width="46" height="45" viewBox="0 0 46 45" fill="none" xmlns="http://www.w3.org/2000/svg">
<mask id="mask0_281_193" style="mask-type:alpha" maskUnits="userSpaceOnUse" x="0" y="0" width="46" height="45">
<rect x="0.5" width="45" height="45" fill="#D9D9D9"/>
</mask>
<g mask="url(#mask0_281_193)">
<path d="M9.875 35.625V9.375V30.548V26.6541V35.625ZM10.452 38.4375C9.50484 38.4375 8.70313 38.1094 8.04688 37.4531C7.39063 36.7969 7.0625 35.9952 7.0625 35.048V9.95203C7.0625 9.00484 7.39063 8.20312 8.04688 7.54688C8.70313 6.89063 9.50484 6.5625 10.452 6.5625H35.548C36.4952 6.5625 37.2969 6.89063 37.9531 7.54688C38.6094 8.20312 38.9375 9.00484 38.9375 9.95203V24.9159H36.125V9.95203C36.125 9.80766 36.0648 9.67547 35.9445 9.55547C35.8245 9.43516 35.6923 9.375 35.548 9.375H10.452C10.3077 9.375 10.1755 9.43516 10.0555 9.55547C9.93516 9.67547 9.875 9.80766 9.875 9.95203V35.048C9.875 35.1923 9.93516 35.3245 10.0555 35.4445C10.1755 35.5648 10.3077 35.625 10.452 35.625H22.9639V38.4375H10.452ZM15.6083 24.1584C16.0792 24.1584 16.4734 23.9998 16.7909 23.6827C17.1081 23.3655 17.2667 22.9713 17.2667 22.5C17.2667 22.0288 17.1081 21.6345 16.7909 21.3173C16.4734 21.0002 16.0792 20.8416 15.6083 20.8416C15.137 20.8416 14.7428 21.0002 14.4256 21.3173C14.1081 21.6345 13.9494 22.0288 13.9494 22.5C13.9494 22.9713 14.1081 23.3655 14.4256 23.6827C14.7428 23.9998 15.137 24.1584 15.6083 24.1584ZM15.6083 16.875C16.0792 16.875 16.4734 16.7164 16.7909 16.3992C17.1081 16.0817 17.2667 15.6875 17.2667 15.2166C17.2667 14.7453 17.1081 14.3511 16.7909 14.0339C16.4734 13.7164 16.0792 13.5577 15.6083 13.5577C15.137 13.5577 14.7428 13.7164 14.4256 14.0339C14.1081 14.3511 13.9494 14.7453 13.9494 15.2166C13.9494 15.6875 14.1081 16.0817 14.4256 16.3992C14.7428 16.7164 15.137 16.875 15.6083 16.875ZM21.3055 23.9062H31.9784V21.0938H21.3055V23.9062ZM21.3055 16.6223H31.9784V13.8103H21.3055V16.6223Z" fill="#1C1B1F"/>
<path d="M9.875 35.625V9.375V30.548V26.6541V35.625ZM10.452 38.4375C9.50484 38.4375 8.70313 38.1094 8.04688 37.4531C7.39063 36.7969 7.0625 35.9952 7.0625 35.048V9.95203C7.0625 9.00484 7.39063 8.20312 8.04688 7.54688C8.70313 6.89063 9.50484 6.5625 10.452 6.5625H35.548C36.4952 6.5625 37.2969 6.89063 37.9531 7.54688C38.6094 8.20312 38.9375 9.00484 38.9375 9.95203V24.9159H36.125V9.95203C36.125 9.80766 36.0648 9.67547 35.9445 9.55547C35.8245 9.43516 35.6923 9.375 35.548 9.375H10.452C10.3077 9.375 10.1755 9.43516 10.0555 9.55547C9.93516 9.67547 9.875 9.80766 9.875 9.95203V35.048C9.875 35.1923 9.93516 35.3245 10.0555 35.4445C10.1755 35.5648 10.3077 35.625 10.452 35.625H22.9639V38.4375H10.452ZM15.6083 24.1584C16.0792 24.1584 16.4734 23.9998 16.7909 23.6827C17.1081 23.3655 17.2667 22.9713 17.2667 22.5C17.2667 22.0288 17.1081 21.6345 16.7909 21.3173C16.4734 21.0002 16.0792 20.8416 15.6083 20.8416C15.137 20.8416 14.7428 21.0002 14.4256 21.3173C14.1081 21.6345 13.9494 22.0288 13.9494 22.5C13.9494 22.9713 14.1081 23.3655 14.4256 23.6827C14.7428 23.9998 15.137 24.1584 15.6083 24.1584ZM15.6083 16.875C16.0792 16.875 16.4734 16.7164 16.7909 16.3992C17.1081 16.0817 17.2667 15.6875 17.2667 15.2166C17.2667 14.7453 17.1081 14.3511 16.7909 14.0339C16.4734 13.7164 16.0792 13.5577 15.6083 13.5577C15.137 13.5577 14.7428 13.7164 14.4256 14.0339C14.1081 14.3511 13.9494 14.7453 13.9494 15.2166C13.9494 15.6875 14.1081 16.0817 14.4256 16.3992C14.7428 16.7164 15.137 16.875 15.6083 16.875ZM21.3055 23.9062H31.9784V21.0938H21.3055V23.9062ZM21.3055 16.6223H31.9784V13.8103H21.3055V16.6223Z" fill="#1C1B1F"/>
<path d="M25 34.8689L30.8992 42.2914L35.7813 36.1409L40.6633 29.9903L38.6875 27.46L30.8992 37.2898L27.0048 32.3752L25 34.8689Z" fill="#1C1B1F"/>
<path d="M25 34.8689L30.8992 42.2914L35.7813 36.1409L40.6633 29.9903L38.6875 27.46L30.8992 37.2898L27.0048 32.3752L25 34.8689Z" fill="#EA5050"/>
</g>
</svg>
