<svg width="43" height="43" viewBox="0 0 43 43" fill="none" xmlns="http://www.w3.org/2000/svg">
<mask id="mask0_281_200" style="mask-type:alpha" maskUnits="userSpaceOnUse" x="0" y="0" width="43" height="43">
<rect width="43" height="43" fill="#D9D9D9"/>
</mask>
<g mask="url(#mask0_281_200)">
<path d="M14.4375 31.3545C13.5324 31.3545 12.7663 31.0409 12.1392 30.4139C11.5121 29.7868 11.1986 29.0207 11.1986 28.1156V7.71838C11.1986 6.81329 11.5121 6.0472 12.1392 5.42012C12.7663 4.79303 13.5324 4.47949 14.4375 4.47949H34.8347C35.7398 4.47949 36.5059 4.79303 37.1329 5.42012C37.76 6.0472 38.0736 6.81329 38.0736 7.71838V28.1156C38.0736 29.0207 37.76 29.7868 37.1329 30.4139C36.5059 31.0409 35.7398 31.3545 34.8347 31.3545H14.4375ZM14.4375 28.667H34.8347C34.9726 28.667 35.099 28.6095 35.2136 28.4945C35.3286 28.3799 35.3861 28.2536 35.3861 28.1156V7.71838C35.3861 7.58042 35.3286 7.45411 35.2136 7.33944C35.099 7.22447 34.9726 7.16699 34.8347 7.16699H14.4375C14.2995 7.16699 14.1732 7.22447 14.0585 7.33944C13.9435 7.45411 13.8861 7.58042 13.8861 7.71838V28.1156C13.8861 28.2536 13.9435 28.3799 14.0585 28.4945C14.1732 28.6095 14.2995 28.667 14.4375 28.667ZM8.16662 37.6253C7.26153 37.6253 6.49544 37.3118 5.86836 36.6847C5.24128 36.0576 4.92773 35.2915 4.92773 34.3864V11.3017H7.61523V34.3864C7.61523 34.5244 7.67272 34.6507 7.78768 34.7654C7.90235 34.8803 8.02866 34.9378 8.16662 34.9378H31.2513V37.6253H8.16662Z" fill="#1C1B1F"/>
<path d="M25.7847 25.971C25.4575 26.2982 25.0745 26.4619 24.6358 26.4619C24.1972 26.4619 23.8142 26.2982 23.4869 25.971C23.1593 25.6437 22.9956 25.2606 22.9956 24.8216C22.9956 24.383 23.1593 24 23.4869 23.6727C23.8142 23.3454 24.1972 23.1818 24.6358 23.1818C25.0745 23.1818 25.4575 23.3454 25.7847 23.6727C26.112 24 26.2756 24.383 26.2756 24.8216C26.2756 25.2606 26.112 25.6437 25.7847 25.971Z" fill="#EA5050"/>
<path d="M25.7037 21.073H23.5675C23.5675 19.9063 23.691 19.0621 23.938 18.5405C24.1849 18.0191 24.7438 17.3771 25.6145 16.6144C26.2461 16.0357 26.69 15.5482 26.9462 15.152C27.2021 14.7557 27.33 14.3314 27.33 13.879C27.33 13.1346 27.0774 12.535 26.5722 12.0802C26.0669 11.6254 25.4215 11.398 24.6358 11.398C24.0043 11.398 23.4512 11.579 22.9767 11.9409C22.5025 12.3025 22.1138 12.8451 21.8104 13.5686L19.874 12.7556C20.2554 11.7242 20.8669 10.9025 21.7087 10.2903C22.5508 9.67815 23.5265 9.37207 24.6358 9.37207C26.0554 9.37207 27.2154 9.7861 28.1157 10.6141C29.016 11.4422 29.4662 12.4938 29.4662 13.7688C29.4662 14.4924 29.3169 15.1274 29.0182 15.6738C28.7196 16.2206 28.1569 16.8902 27.33 17.6827C26.6388 18.351 26.2007 18.881 26.0159 19.2728C25.8307 19.6643 25.7267 20.2644 25.7037 21.073Z" fill="#EA5050"/>
</g>
</svg>
