<svg width="38" height="38" viewBox="0 0 38 38" fill="none" xmlns="http://www.w3.org/2000/svg">
<path d="M34.8333 37.75L21.7083 24.625C20.6667 25.4583 19.4687 26.1181 18.1146 26.6042C16.7604 27.0903 15.3194 27.3333 13.7917 27.3333C10.0069 27.3333 6.80382 26.0226 4.18229 23.401C1.56076 20.7795 0.25 17.5764 0.25 13.7917C0.25 10.0069 1.56076 6.80382 4.18229 4.18229C6.80382 1.56076 10.0069 0.25 13.7917 0.25C17.5764 0.25 20.7795 1.56076 23.401 4.18229C26.0226 6.80382 27.3333 10.0069 27.3333 13.7917C27.3333 15.3194 27.0903 16.7604 26.6042 18.1146C26.1181 19.4687 25.4583 20.6667 24.625 21.7083L37.75 34.8333L34.8333 37.75ZM13.7917 23.1667C16.3958 23.1667 18.6094 22.2552 20.4323 20.4323C22.2552 18.6094 23.1667 16.3958 23.1667 13.7917C23.1667 11.1875 22.2552 8.97396 20.4323 7.15104C18.6094 5.32812 16.3958 4.41667 13.7917 4.41667C11.1875 4.41667 8.97396 5.32812 7.15104 7.15104C5.32812 8.97396 4.41667 11.1875 4.41667 13.7917C4.41667 16.3958 5.32812 18.6094 7.15104 20.4323C8.97396 22.2552 11.1875 23.1667 13.7917 23.1667Z" fill="#EA5050"/>
</svg>
