<svg width="27" height="27" viewBox="0 0 27 27" fill="none" xmlns="http://www.w3.org/2000/svg">
<path d="M13.5 2.53125C11.3306 2.53125 9.2099 3.17456 7.40609 4.37982C5.60229 5.58508 4.1964 7.29816 3.3662 9.30244C2.536 11.3067 2.31878 13.5122 2.74202 15.6399C3.16525 17.7676 4.20992 19.7221 5.74393 21.2561C7.27793 22.7901 9.23238 23.8348 11.3601 24.258C13.4878 24.6812 15.6933 24.464 17.6976 23.6338C19.7018 22.8036 21.4149 21.3977 22.6202 19.5939C23.8254 17.7901 24.4688 15.6694 24.4688 13.5C24.4657 10.5918 23.3091 7.80369 21.2527 5.74731C19.1963 3.69094 16.4082 2.53432 13.5 2.53125ZM13.5 22.7812C11.6643 22.7812 9.86991 22.2369 8.34362 21.2171C6.81732 20.1972 5.62772 18.7477 4.92525 17.0518C4.22277 15.3559 4.03897 13.4897 4.39709 11.6893C4.75521 9.88893 5.63916 8.23517 6.93717 6.93717C8.23518 5.63916 9.88894 4.75521 11.6893 4.39709C13.4897 4.03897 15.3559 4.22277 17.0518 4.92524C18.7477 5.62772 20.1972 6.81732 21.2171 8.34361C22.2369 9.86991 22.7813 11.6643 22.7813 13.5C22.7785 15.9607 21.7997 18.3198 20.0598 20.0598C18.3198 21.7997 15.9607 22.7785 13.5 22.7812ZM8.4375 11.3906C8.4375 11.1403 8.51173 10.8956 8.6508 10.6875C8.78987 10.4794 8.98753 10.3171 9.2188 10.2213C9.45006 10.1255 9.70453 10.1005 9.95004 10.1493C10.1955 10.1982 10.4211 10.3187 10.5981 10.4957C10.7751 10.6727 10.8956 10.8982 10.9444 11.1437C10.9933 11.3892 10.9682 11.6437 10.8724 11.875C10.7766 12.1062 10.6144 12.3039 10.4063 12.443C10.1981 12.582 9.95345 12.6562 9.70313 12.6562C9.36746 12.6562 9.04555 12.5229 8.8082 12.2856C8.57085 12.0482 8.4375 11.7263 8.4375 11.3906ZM18.5625 11.3906C18.5625 11.6409 18.4883 11.8856 18.3492 12.0938C18.2101 12.3019 18.0125 12.4641 17.7812 12.5599C17.5499 12.6557 17.2955 12.6808 17.05 12.6319C16.8045 12.5831 16.5789 12.4626 16.4019 12.2856C16.2249 12.1086 16.1044 11.883 16.0556 11.6375C16.0067 11.392 16.0318 11.1376 16.1276 10.9063C16.2234 10.675 16.3856 10.4774 16.5937 10.3383C16.8019 10.1992 17.0466 10.125 17.2969 10.125C17.6325 10.125 17.9545 10.2583 18.1918 10.4957C18.4292 10.733 18.5625 11.055 18.5625 11.3906ZM18.4497 16.4531C17.3644 18.3294 15.5598 19.4062 13.5 19.4062C11.4402 19.4062 9.63668 18.3305 8.55141 16.4531C8.49036 16.3571 8.44937 16.2497 8.4309 16.1374C8.41243 16.0251 8.41687 15.9103 8.44394 15.7997C8.47101 15.6892 8.52017 15.5853 8.58844 15.4943C8.65671 15.4032 8.74269 15.3269 8.84122 15.27C8.93974 15.213 9.04876 15.1766 9.16172 15.1629C9.27469 15.1492 9.38926 15.1584 9.49855 15.1901C9.60784 15.2218 9.70959 15.2753 9.79767 15.3474C9.88575 15.4194 9.95835 15.5085 10.0111 15.6094C10.7989 16.971 12.0372 17.7187 13.5 17.7187C14.9629 17.7187 16.2011 16.9699 16.9879 15.6094C17.0997 15.4155 17.2841 15.2741 17.5002 15.2161C17.7164 15.1582 17.9468 15.1885 18.1406 15.3004C18.3345 15.4122 18.4759 15.5965 18.5339 15.8127C18.5918 16.0289 18.5615 16.2593 18.4497 16.4531Z" fill="#16CD8D"/>
</svg>
