<svg width="27" height="27" viewBox="0 0 27 27" fill="none" xmlns="http://www.w3.org/2000/svg">
<path d="M13.668 0.899902C11.4986 0.899902 9.37786 1.54321 7.57406 2.74847C5.77026 3.95373 4.36437 5.66682 3.53417 7.67109C2.70397 9.67537 2.48675 11.8808 2.90999 14.0085C3.33322 16.1363 4.37789 18.0907 5.9119 19.6247C7.4459 21.1587 9.40035 22.2034 11.5281 22.6266C13.6558 23.0499 15.8613 22.8327 17.8655 22.0025C19.8698 21.1723 21.5829 19.7664 22.7882 17.9626C23.9934 16.1588 24.6367 14.0381 24.6367 11.8687C24.6337 8.9605 23.477 6.17234 21.4207 4.11597C19.3643 2.05959 16.5761 0.902973 13.668 0.899902ZM13.668 21.1499C11.8323 21.1499 10.0379 20.6056 8.51159 19.5857C6.98529 18.5659 5.79569 17.1164 5.09322 15.4204C4.39074 13.7245 4.20694 11.8584 4.56506 10.058C4.92318 8.25758 5.80713 6.60382 7.10514 5.30582C8.40314 4.00781 10.0569 3.12386 11.8573 2.76574C13.6577 2.40762 15.5238 2.59142 17.2198 3.2939C18.9157 3.99637 20.3652 5.18597 21.385 6.71227C22.4049 8.23856 22.9492 10.033 22.9492 11.8687C22.9464 14.3293 21.9677 16.6884 20.2277 18.4284C18.4878 20.1684 16.1287 21.1471 13.668 21.1499ZM8.60547 9.75928C8.60547 9.50896 8.6797 9.26426 8.81877 9.05613C8.95784 8.848 9.1555 8.68578 9.38676 8.58999C9.61803 8.4942 9.8725 8.46914 10.118 8.51797C10.3635 8.5668 10.589 8.68734 10.766 8.86434C10.943 9.04135 11.0636 9.26686 11.1124 9.51237C11.1612 9.75787 11.1362 10.0123 11.0404 10.2436C10.9446 10.4749 10.7824 10.6725 10.5742 10.8116C10.3661 10.9507 10.1214 11.0249 9.8711 11.0249C9.53543 11.0249 9.21352 10.8916 8.97617 10.6542C8.73882 10.4169 8.60547 10.0949 8.60547 9.75928ZM18.7305 9.75928C18.7305 10.0096 18.6562 10.2543 18.5172 10.4624C18.3781 10.6706 18.1804 10.8328 17.9492 10.9286C17.7179 11.0244 17.4634 11.0494 17.2179 11.0006C16.9724 10.9517 16.7469 10.8312 16.5699 10.6542C16.3929 10.4772 16.2724 10.2517 16.2235 10.0062C16.1747 9.76068 16.1998 9.50621 16.2956 9.27494C16.3914 9.04368 16.5536 8.84602 16.7617 8.70695C16.9698 8.56788 17.2145 8.49365 17.4648 8.49365C17.8005 8.49365 18.1224 8.62699 18.3598 8.86434C18.5971 9.1017 18.7305 9.42361 18.7305 9.75928ZM18.6166 16.5093C18.6776 16.6053 18.7186 16.7127 18.7371 16.825C18.7555 16.9373 18.7511 17.0521 18.724 17.1627C18.697 17.2732 18.6478 17.3771 18.5795 17.4681C18.5113 17.5592 18.4253 17.6355 18.3268 17.6924C18.2282 17.7494 18.1192 17.7858 18.0063 17.7995C17.8933 17.8132 17.7787 17.804 17.6694 17.7723C17.5601 17.7406 17.4584 17.6871 17.3703 17.615C17.2822 17.543 17.2096 17.4539 17.1569 17.353C16.369 15.9914 15.1308 15.2437 13.668 15.2437C12.2051 15.2437 10.9669 15.9925 10.1791 17.353C10.1263 17.4539 10.0537 17.543 9.96564 17.615C9.87756 17.6871 9.77581 17.7406 9.66652 17.7723C9.55723 17.804 9.44266 17.8132 9.32969 17.7995C9.21673 17.7858 9.1077 17.7494 9.00918 17.6924C8.91066 17.6355 8.82468 17.5592 8.75641 17.4681C8.68813 17.3771 8.63898 17.2732 8.61191 17.1627C8.58484 17.0521 8.5804 16.9373 8.59887 16.825C8.61734 16.7127 8.65833 16.6053 8.71938 16.5093C9.80465 14.633 11.6082 13.5562 13.668 13.5562C15.7278 13.5562 17.5313 14.6319 18.6166 16.5093Z" fill="#FFB259"/>
</svg>
