<svg width="24" height="22" viewBox="0 0 24 22" fill="none" xmlns="http://www.w3.org/2000/svg">
<path d="M4.74805 14.8457C3.36784 14.8457 2.31315 14.4909 1.58398 13.7812C0.854818 13.0716 0.490234 12.0527 0.490234 10.7246V9.35742C0.490234 8.0293 0.854818 7.01367 1.58398 6.31055C2.31315 5.60091 3.36784 5.24609 4.74805 5.24609H6.64258V14.8457H4.74805ZM8.10742 14.8555V5.24609C8.97331 5.14844 9.9401 4.98242 11.0078 4.74805C12.0755 4.51367 13.1562 4.21745 14.25 3.85938C15.3438 3.5013 16.3561 3.08789 17.2871 2.61914C17.2871 2.68424 17.2871 2.74935 17.2871 2.81445C17.2871 2.87305 17.2871 2.9349 17.2871 3V17.082C17.2871 17.1471 17.2871 17.2155 17.2871 17.2871C17.2871 17.3522 17.2904 17.4141 17.2969 17.4727C16.3398 16.9974 15.3307 16.584 14.2695 16.2324C13.2083 15.8809 12.1504 15.5911 11.0957 15.3633C10.041 15.1289 9.04492 14.9596 8.10742 14.8555ZM20.8906 19.7578C20.4674 19.7578 20.0898 19.6634 19.7578 19.4746C19.4323 19.2858 19.1751 19.0254 18.9863 18.6934C18.804 18.3678 18.7129 17.9967 18.7129 17.5801V2.43359C18.7129 2.01693 18.804 1.64258 18.9863 1.31055C19.1751 0.978516 19.4323 0.721354 19.7578 0.539062C20.0898 0.35026 20.4674 0.255859 20.8906 0.255859C21.3073 0.255859 21.6784 0.35026 22.0039 0.539062C22.3359 0.721354 22.5964 0.978516 22.7852 1.31055C22.974 1.64258 23.0684 2.01693 23.0684 2.43359V17.5801C23.0684 17.9967 22.974 18.3678 22.7852 18.6934C22.5964 19.0254 22.3359 19.2858 22.0039 19.4746C21.6784 19.6634 21.3073 19.7578 20.8906 19.7578ZM8.79102 21.6523C8.17253 21.6523 7.68424 21.4961 7.32617 21.1836C6.97461 20.8776 6.66211 20.4447 6.38867 19.8848L4.63086 16.2617C4.76107 16.2617 4.88477 16.265 5.00195 16.2715C5.12565 16.2715 5.22656 16.2715 5.30469 16.2715C6.57422 16.2975 7.57357 16.3431 8.30273 16.4082C9.0319 16.4733 9.64062 16.5547 10.1289 16.6523L10.6953 19.0938C10.819 19.6146 10.806 20.0671 10.6562 20.4512C10.513 20.8353 10.2721 21.1315 9.93359 21.3398C9.60156 21.5482 9.2207 21.6523 8.79102 21.6523Z" fill="#EA5050"/>
</svg>
