<svg width="15" height="21" viewBox="0 0 15 21" fill="none" xmlns="http://www.w3.org/2000/svg">
<path d="M0.811523 10.3809V8.64062C0.811523 8.41211 0.893555 8.21875 1.05762 8.06055C1.22168 7.90234 1.41504 7.82324 1.6377 7.82324C1.87207 7.82324 2.07129 7.90234 2.23535 8.06055C2.39941 8.21875 2.48145 8.41211 2.48145 8.64062V10.3193C2.48145 11.3154 2.68945 12.1885 3.10547 12.9385C3.52734 13.6826 4.11621 14.2598 4.87207 14.6699C5.62793 15.0801 6.50391 15.2852 7.5 15.2852C8.50195 15.2852 9.37793 15.0801 10.1279 14.6699C10.8779 14.2598 11.4639 13.6826 11.8857 12.9385C12.3076 12.1885 12.5186 11.3154 12.5186 10.3193V8.64062C12.5186 8.41211 12.6006 8.21875 12.7646 8.06055C12.9287 7.90234 13.125 7.82324 13.3535 7.82324C13.582 7.82324 13.7754 7.90234 13.9336 8.06055C14.0977 8.21875 14.1797 8.41211 14.1797 8.64062V10.3809C14.1797 11.5879 13.9307 12.6543 13.4326 13.5801C12.9346 14.5059 12.2432 15.2471 11.3584 15.8037C10.4795 16.3604 9.46289 16.6943 8.30859 16.8057V18.6074H11.5342C11.7627 18.6074 11.959 18.6865 12.123 18.8447C12.2871 19.0088 12.3691 19.2051 12.3691 19.4336C12.3691 19.6562 12.2871 19.8467 12.123 20.0049C11.959 20.1689 11.7627 20.251 11.5342 20.251H3.46582C3.2373 20.251 3.04102 20.1689 2.87695 20.0049C2.71289 19.8467 2.63086 19.6562 2.63086 19.4336C2.63086 19.2051 2.71289 19.0088 2.87695 18.8447C3.04102 18.6865 3.2373 18.6074 3.46582 18.6074H6.69141V16.8057C5.53711 16.6943 4.51758 16.3604 3.63281 15.8037C2.74805 15.2471 2.05664 14.5059 1.55859 13.5801C1.06055 12.6543 0.811523 11.5879 0.811523 10.3809ZM7.5 13.4658C6.9082 13.4658 6.37793 13.3281 5.90918 13.0527C5.44629 12.7715 5.08008 12.3848 4.81055 11.8926C4.54102 11.4004 4.40625 10.8291 4.40625 10.1787V4.26367C4.40625 3.61328 4.54102 3.04199 4.81055 2.5498C5.08008 2.05762 5.44629 1.67383 5.90918 1.39844C6.37793 1.11719 6.9082 0.976562 7.5 0.976562C8.0918 0.976562 8.61914 1.11719 9.08203 1.39844C9.55078 1.67383 9.91699 2.05762 10.1807 2.5498C10.4502 3.04199 10.585 3.61328 10.585 4.26367V10.1787C10.585 10.8291 10.4502 11.4004 10.1807 11.8926C9.91699 12.3848 9.55078 12.7715 9.08203 13.0527C8.61914 13.3281 8.0918 13.4658 7.5 13.4658Z" fill="white"/>
</svg>
