<svg width="240" height="240" viewBox="0 0 240 240" fill="none" xmlns="http://www.w3.org/2000/svg">
<g filter="url(#filter0_d_558_1438)">
<circle cx="120" cy="110" r="60" fill="white"/>
</g>
<path d="M134.187 105.072C135.231 105.072 136.077 105.877 136.077 106.87C136.077 106.911 136.074 106.952 136.071 106.992V111.431H136.048C136.054 119.688 129.562 126.644 120.938 127.622V133.086H128.062V133.112C128.087 133.111 128.113 133.109 128.139 133.109C129.183 133.109 130.029 133.915 130.029 134.907C130.029 135.9 129.183 136.704 128.139 136.704C128.113 136.704 128.087 136.701 128.062 136.7V136.702H110.056V136.7C110.032 136.701 110.008 136.704 109.984 136.704C108.941 136.704 108.095 135.9 108.095 134.907C108.095 133.915 108.94 133.11 109.984 133.109C110.008 133.109 110.032 133.111 110.056 133.112V133.086H117.194V127.622C108.552 126.667 102.036 119.702 102.047 111.431C102.047 111.352 102.06 111.28 102.062 111.208V107.084C102.053 107.014 102.047 106.943 102.047 106.87C102.047 105.877 102.893 105.072 103.938 105.072C104.982 105.072 105.828 105.877 105.828 106.87C105.828 106.926 105.825 106.981 105.819 107.035V111.991H105.81V112.006C105.81 112.071 105.819 112.136 105.819 112.2V112.876H105.854C106.417 119.268 111.919 124.25 118.662 124.473H119.426C126.171 124.254 131.677 119.27 132.237 112.876H132.282V106.887L132.297 106.886C132.297 106.881 132.297 106.875 132.297 106.87C132.297 105.878 133.143 105.073 134.187 105.072Z" fill="#EA5050"/>
<path d="M119.059 82.7891C123.566 82.7892 127.521 85.6441 128.731 89.7715C129.016 90.7166 129.193 91.6881 129.261 92.6689C129.329 93.7545 129.261 98.2404 129.261 99.3193V108.407H129.259C129.259 109.493 129.26 110.636 129.199 111.722C129.153 112.701 128.995 113.672 128.729 114.619C128.138 116.607 126.876 118.355 125.138 119.595C121.572 122.269 116.543 122.269 112.978 119.595C111.235 118.359 109.971 116.609 109.384 114.619C109.117 113.672 108.96 112.701 108.915 111.722C108.849 110.636 108.855 109.493 108.855 108.407V92.6689C108.885 91.6841 109.064 90.7082 109.385 89.7715C110.596 85.644 114.551 82.7891 119.059 82.7891Z" fill="#EA5050"/>
<defs>
<filter id="filter0_d_558_1438" x="0" y="0" width="240" height="240" filterUnits="userSpaceOnUse" color-interpolation-filters="sRGB">
<feFlood flood-opacity="0" result="BackgroundImageFix"/>
<feColorMatrix in="SourceAlpha" type="matrix" values="0 0 0 0 0 0 0 0 0 0 0 0 0 0 0 0 0 0 127 0" result="hardAlpha"/>
<feOffset dy="10"/>
<feGaussianBlur stdDeviation="30"/>
<feComposite in2="hardAlpha" operator="out"/>
<feColorMatrix type="matrix" values="0 0 0 0 1 0 0 0 0 0.778677 0 0 0 0 0.778677 0 0 0 1 0"/>
<feBlend mode="normal" in2="BackgroundImageFix" result="effect1_dropShadow_558_1438"/>
<feBlend mode="normal" in="SourceGraphic" in2="effect1_dropShadow_558_1438" result="shape"/>
</filter>
</defs>
</svg>
